<?xml version="1.0" encoding="UTF-8"?>
<!DOCTYPE svg PUBLIC "-//W3C//DTD SVG 1.1//EN" "http://www.w3.org/Graphics/SVG/1.1/DTD/svg11.dtd">
<!-- Creator: CorelDRAW 2020 (64 Bit) -->
<svg xmlns="http://www.w3.org/2000/svg" xml:space="preserve" width="45.4152mm" height="28.406mm" version="1.1" style="shape-rendering:geometricPrecision; text-rendering:geometricPrecision; image-rendering:optimizeQuality; fill-rule:evenodd; clip-rule:evenodd"
viewBox="0 0 1038.74 649.7"
 xmlns:xlink="http://www.w3.org/1999/xlink"
 xmlns:xodm="http://www.corel.com/coreldraw/odm/2003">
 <defs>
  <style type="text/css">
   <![CDATA[
    .str0 {stroke:#FEFEFE;stroke-width:14.19;stroke-linecap:round;stroke-linejoin:round;stroke-miterlimit:22.9256}
    .fil3 {fill:none}
    .fil0 {fill:#FEFEFE}
    .fil1 {fill:#FFCC29}
    .fil2 {fill:#85BD4C}
    .fil4 {fill:#282829;fill-rule:nonzero}
   ]]>
  </style>
 </defs>
 <g id="Camada_x0020_1">
  <metadata id="CorelCorpID_0Corel-Layer"/>
  <g id="_2027251893408">
   <path class="fil0" d="M155.25 214.97l-15.1 172.21c4.25,0.54 8.88,1.02 13.56,1.42 9.16,0.8 18.11,1.3 24.68,1.36 7.82,0.08 14.78,-0.6 20.8,-2.26 5.49,-1.51 10.18,-3.86 13.96,-7.22 17.2,-15.26 19.22,-35.67 22.06,-64.39 0.35,-3.53 0.71,-7.18 0.99,-9.87l0.15 -1.44c1.51,-14.41 3.06,-29.17 2.97,-42.37 -0.2,-27.76 -8.27,-50.09 -43.64,-49.84 -7.39,0.05 -15.96,0.16 -24.8,0.73 -5.44,0.35 -10.79,0.87 -15.63,1.67zm-32.4 369.23c-0.28,7.2 -0.5,12.72 -8.77,17.46l-1.25 0.72 -1.54 0.36c-2.26,0.52 -15.55,0.76 -31.67,0.83 -25.1,0.11 -57.96,-0.06 -64.39,-0.19 -6.19,-0.12 -9.68,-0.99 -12.8,-5.3 -2.82,-3.89 -2.68,-7.03 -2.04,-12.37l0.02 0 6.62 -74.47 -0.02 -0c3.16,-43.03 7.38,-88.27 11.57,-133.22 1.21,-12.93 2.41,-25.83 3.59,-38.69l17.36 -194.59 0.3 -0.96c2.95,-9.57 22.69,-15.83 47.56,-19.88 39.44,-6.43 95.1,-10.07 102.79,-10.29 34.33,-0.96 62.9,1.93 86.81,10.15 24.72,8.49 44.39,22.52 60.09,43.58 6.97,9.34 12.98,21.62 17.33,35.26 4.14,12.95 6.76,27.2 7.26,41.37 0.32,9.29 -0.27,23.94 -1.25,39.11 -1.21,18.6 -3.06,38.47 -4.53,50.16 -5.49,43.47 -20.28,78.89 -45,105.03 -24.08,25.47 -57.25,41.89 -100.08,48.09 -32.22,4.66 -51.97,1.76 -67.9,-0.58 -3.92,-0.58 -7.58,-1.12 -11.06,-1.47 -0.57,8.77 -1.5,17.57 -2.44,26.35 -0.88,8.25 -1.76,16.47 -2.31,24.52 -0.37,5.38 -0.97,11.58 -1.56,17.78 -0.33,3.38 -0.66,6.78 -1.14,12.63l-0.33 4.19c-0.27,3.56 -0.54,7.14 -0.99,11.12 -0.13,1.23 -0.18,2.31 -0.21,3.31z"/>
   <path class="fil1" d="M844.52 391.28c12.77,0.34 26.78,-1.31 39.45,-3.28l15.26 -171.57 -4.37 -0.38c-11.92,-1.06 -23.66,-2.1 -35.2,-2.26 -8.47,-0.13 -14.86,0.59 -20.3,2.32l-0.01 -0.03c-5.08,1.61 -9.6,4.31 -14.54,8.2 -17.03,13.41 -19.71,44.21 -21.82,68.65 -0.23,2.73 0.33,-3.9 -0.51,5.48l-0.63 6.78c-2.68,28.45 -5.65,60.17 9.32,75.76 6.99,7.29 19.44,9.95 33.37,10.32zm56.41 -273.22l6.86 0.86c0.78,-8.6 1.78,-20.73 2.85,-33.78 2.71,-33.02 5.88,-71.71 7.86,-77.12l1.62 -4.43 4.37 -1.65c6.43,-2.42 48.31,-2 75.67,-1.72 9.42,0.1 17.07,0.17 20.62,0.13l1.81 -0.08c10.01,-0.48 15.6,-0.75 16.11,13.28l0.03 0.88 -21.95 248.75 -0.04 0c-1.52,16.87 -2.67,29.4 -3.83,42.09 -3.89,42.55 -7.79,85.16 -11.34,130.6l0 0.04c-0.14,1.7 -0.21,2.79 -0.28,3.97 -0.4,6.22 -0.96,15.04 -2.17,19.32 -4.04,14.26 -44.8,19.74 -59.97,21.77 -0.84,0.11 -1.38,0.19 -3.53,0.5 -38.48,5.7 -83.89,11.12 -125.89,7.04 -43.53,-4.23 -83.13,-18.65 -107.64,-53.17 -16.33,-23.01 -22.68,-50.2 -24.01,-79.22 -1.3,-28.1 2.07,-57.52 5.45,-86.43 3.41,-29.31 11.57,-54.46 23.38,-75.36 12.69,-22.46 29.53,-39.9 49.22,-52.26 10.49,-6.58 21.68,-11.94 33.94,-16.18 12.17,-4.21 25.23,-7.28 39.58,-9.32 28.02,-3.99 47.6,-1.51 71.28,1.49z"/>
   <path class="fil2" d="M534.12 477.44c-55.51,9.03 -119.36,-1.1 -162.56,-12.8l-7.68 -2.08 0.12 -7.95c0.18,-11.41 1.42,-23.22 2.66,-34.88 0.72,-6.86 1.44,-13.67 1.93,-20.61 0.18,-2.58 0.24,-4.06 0.29,-5.35 0.08,-2.08 0.15,-3.8 0.37,-5.59l-0.04 -0.01c1.68,-13.41 5.61,-15.41 23.62,-13.15 3.44,0.43 2.82,0.38 9.82,1.29 34.64,4.5 100.02,13 116.32,3.94l-0.02 -0.02c1.21,-0.68 2.2,-1.39 3,-2.12 2.86,-2.64 4.51,-6.28 5.06,-10.04 0.54,-3.71 -0.02,-7.37 -1.58,-10.16l0 -0.04c-0.4,-0.71 -0.83,-1.33 -1.3,-1.83 -7.69,-8.31 -48.18,-30.17 -73.91,-44.07 -6.05,-3.26 -11.25,-6.07 -16.02,-8.73 -19.22,-10.72 -34.29,-25.62 -43.01,-45.25 -7.87,-17.74 -10.43,-39.03 -5.98,-64.19 7.19,-40.58 32.77,-63.55 65.17,-75.99 30.79,-11.83 67.56,-13.76 99.69,-12.43 9.33,0.38 18.46,1 27.5,1.9 9.18,0.91 18.19,2.1 27.1,3.6 7.21,1.21 16.21,2.83 24.7,4.68 8.81,1.92 17.54,4.2 24.21,6.76l6.73 2.58 -0.17 7.17c-0.14,5.91 -1.77,28.74 -3.53,47.08 -1.27,13.26 -2.8,24.79 -4.28,27.89l-2.09 4.37 -4.67 1.15c-4.78,1.18 -29.43,-2.05 -43.46,-3.88 -2.32,-0.3 -4.22,-0.55 -7.72,-0.97 -8.1,-0.96 -16.64,-1.83 -25.29,-2.55 -8.33,-0.69 -16.31,-1.23 -23.57,-1.55l-1.15 -0.05c-14.22,-0.62 -28.23,-1.23 -34.39,5.53 -1.16,1.27 -2.23,3.21 -2.81,5.45 -0.44,1.7 -0.56,3.52 -0.1,5.21 0.51,1.92 1.41,3.37 2.51,4.54 1.33,1.44 3.41,2.94 5.55,4.42l33.29 18.78 0 -0.02c5.83,3.09 11.5,6.16 16.96,9.17 5.55,3.06 11.61,6.47 17.95,10.08 12.28,6.99 23.9,13.77 34.1,22.41 10.69,9.04 19.59,19.92 25.63,34.69 6.11,14.95 7.59,31.59 5.86,47.5 -1.94,17.9 -7.98,35.12 -16.02,48.09 -21.25,34.29 -57.81,51.35 -98.79,58.02z"/>
   <path class="fil3 str0" d="M682.01 596.98c0,1.21 -0.42,2.27 -1.25,3.18 -0.84,0.92 -1.87,1.37 -3.09,1.37l-38.79 0c-1.07,0 -1.99,-0.46 -2.75,-1.37 -0.76,-0.91 -1.14,-1.91 -1.14,-2.98l-0.7 -31.7 -40.61 0 -12.11 31.7c-0.45,1.07 -1.13,2.07 -2.05,2.98 -0.92,0.92 -1.99,1.37 -3.21,1.37l-40.4 0c-2.12,0 -3.18,-0.99 -3.18,-2.98 0,-0.29 0.15,-0.89 0.46,-1.81l55.23 -139.68c3.03,-7.61 6.95,-13.35 11.74,-17.22 4.8,-3.89 10.35,-6.52 16.67,-7.88 6.32,-1.38 13.05,-2.07 20.2,-2.07 7.31,0 13.82,0.69 19.53,2.07 5.7,1.36 10.3,3.99 13.81,7.88 3.5,3.87 5.4,9.62 5.7,17.22l5.95 139.68 0 0.24zm335.06 -82.17c0,1.68 -0.12,4.04 -0.35,7.09 -0.23,3.04 -0.5,5.24 -0.79,6.6l-2.3 13.23c-3.8,22.07 -11.55,37.9 -23.27,47.48 -11.72,9.58 -27.54,14.37 -47.46,14.37 -16.44,0 -28.93,-4.41 -37.45,-13.23 -8.52,-8.83 -12.79,-20.39 -12.79,-34.71 0,-2.12 0.08,-4.36 0.24,-6.71 0.15,-2.36 0.45,-4.76 0.91,-7.21l2.3 -13.23c2.59,-15.07 7.03,-27.12 13.35,-36.17 6.32,-9.06 14.35,-15.61 24.08,-19.64 9.73,-4.03 20.91,-6.05 33.54,-6.05 15.83,0 28.13,4.38 36.87,13.13 8.75,8.74 13.13,20.42 13.13,35.03zm-43.61 2.04c0,-5.02 -1.03,-8.51 -3.09,-10.48 -2.04,-1.98 -5.28,-2.98 -9.69,-2.98 -5.78,0 -10.31,1.95 -13.57,5.83 -3.27,3.87 -5.74,10.3 -7.42,19.27l-2.28 13.23c-0.31,2.29 -0.58,4.36 -0.82,6.18 -0.22,1.81 -0.32,3.56 -0.32,5.23 0,5.33 1.14,8.99 3.42,10.97 2.28,1.97 5.55,2.95 9.81,2.95 5.78,0 10.23,-1.78 13.34,-5.34 3.12,-3.58 5.53,-10.24 7.21,-19.99l2.28 -13.23c0.31,-2.28 0.57,-4.41 0.79,-6.4 0.23,-1.98 0.35,-3.73 0.35,-5.25zm-94.48 -14.16c-4.87,0 -9.62,0.39 -14.27,1.16 -4.64,0.76 -8.94,2.13 -12.9,4.09l-15.5 88.57c-0.16,1.22 -0.58,2.37 -1.28,3.44 -0.69,1.06 -2.09,1.58 -4.21,1.58l-34.24 0c-1.21,0 -2.27,-0.42 -3.19,-1.26 -0.92,-0.84 -1.23,-2.09 -0.93,-3.76l21.69 -123.25c0.31,-1.22 0.8,-2.29 1.48,-3.2 0.68,-0.91 2.01,-1.37 4,-1.37l31.94 0c1.22,0 2.21,0.31 2.97,0.93 0.75,0.6 0.99,1.83 0.7,3.65l-0.7 5.47c5.33,-5.32 10.81,-8.61 16.43,-9.9 5.63,-1.3 10.42,-1.95 14.39,-1.95l2.51 0c1.96,0 3.17,0.46 3.62,1.37 0.47,0.92 0.55,1.98 0.26,3.18l-4.81 26.71c-0.14,1.07 -0.52,2.11 -1.13,3.09 -0.61,0.98 -1.83,1.46 -3.65,1.46l-3.18 0zm-96.09 -81.24c3.03,0 6.19,0.23 9.46,0.7 3.26,0.45 6.35,0.97 9.25,1.58 1.98,0.32 3.19,0.81 3.65,1.49 0.47,0.69 0.54,1.64 0.23,2.86l-3.65 20.99c-0.16,1.37 -0.58,2.46 -1.25,3.3 -0.69,0.83 -2.09,1.25 -4.23,1.25l-9.14 0c-3.04,0 -5.24,0.54 -6.62,1.6 -1.37,1.07 -2.43,3.81 -3.19,8.23l-0.91 5.23 16.9 0c3.19,0 4.48,1.6 3.86,4.81l-4.09 22.8c-0.47,3.2 -2.3,4.81 -5.48,4.81l-16.9 0 -17.57 99.51c-2.13,12.01 -5.4,21.02 -9.81,27.03 -4.42,6.01 -9.94,10 -16.55,11.97 -6.62,1.98 -14.34,2.97 -23.15,2.97 -2.9,0 -6.02,-0.23 -9.37,-0.67 -3.35,-0.46 -6.46,-0.99 -9.34,-1.6 -1.07,-0.3 -2.02,-0.79 -2.86,-1.49 -0.84,-0.69 -1.17,-1.63 -1.02,-2.84l3.65 -21.01c0.3,-1.37 0.79,-2.46 1.47,-3.3 0.7,-0.84 1.96,-1.26 3.79,-1.26l7.74 0c3.96,0 6.67,-0.5 8.11,-1.49 1.44,-0.99 2.54,-3.76 3.3,-8.32l17.36 -99.51 -15.06 -2.3c-3.06,-0.29 -4.35,-2.12 -3.88,-5.46l3.42 -19.85c0.45,-3.21 2.35,-4.81 5.69,-4.81l15.53 0 0.91 -5.23c2.14,-12.02 5.4,-21 9.81,-26.94 4.42,-5.93 9.97,-9.92 16.67,-11.97 6.69,-2.06 14.46,-3.09 23.3,-3.09zm-148.81 107.51l-0.93 -57.97c0,-1.07 -0.08,-1.87 -0.23,-2.39 -0.14,-0.54 -0.74,-0.82 -1.81,-0.82 -1.07,0 -1.76,0.27 -2.07,0.82 -0.3,0.53 -0.6,1.32 -0.91,2.39l-21.45 57.97 27.41 0z"/>
   <path class="fil4" d="M681.8 597.3c0,1.21 -0.42,2.27 -1.25,3.18 -0.83,0.92 -1.87,1.37 -3.09,1.37l-38.8 0c-1.07,0 -1.99,-0.46 -2.75,-1.37 -0.76,-0.91 -1.14,-1.91 -1.14,-2.98l-0.7 -31.7 -40.61 0 -12.1 31.7c-0.46,1.07 -1.14,2.07 -2.05,2.98 -0.91,0.92 -1.99,1.37 -3.2,1.37l-40.4 0c-2.13,0 -3.19,-0.99 -3.19,-2.98 0,-0.29 0.15,-0.89 0.46,-1.81l55.23 -139.67c3.04,-7.61 6.95,-13.35 11.74,-17.22 4.8,-3.89 10.35,-6.51 16.67,-7.88 6.32,-1.38 13.05,-2.07 20.2,-2.07 7.31,0 13.81,0.69 19.53,2.07 5.7,1.36 10.3,3.99 13.8,7.88 3.5,3.87 5.4,9.62 5.7,17.22l5.94 139.67 0 0.24zm335.06 -82.17c0,1.68 -0.12,4.04 -0.35,7.09 -0.23,3.04 -0.49,5.24 -0.79,6.6l-2.3 13.23c-3.8,22.07 -11.55,37.9 -23.27,47.48 -11.72,9.58 -27.54,14.37 -47.46,14.37 -16.45,0 -28.93,-4.41 -37.45,-13.23 -8.52,-8.83 -12.79,-20.39 -12.79,-34.7 0,-2.12 0.08,-4.36 0.24,-6.72 0.15,-2.36 0.45,-4.76 0.9,-7.2l2.3 -13.23c2.59,-15.07 7.03,-27.11 13.35,-36.17 6.32,-9.06 14.35,-15.61 24.08,-19.64 9.73,-4.03 20.91,-6.05 33.54,-6.05 15.83,0 28.12,4.38 36.86,13.13 8.76,8.74 13.14,20.42 13.14,35.03zm-43.61 2.04c0,-5.02 -1.04,-8.51 -3.09,-10.48 -2.04,-1.98 -5.28,-2.98 -9.69,-2.98 -5.78,0 -10.31,1.95 -13.57,5.83 -3.27,3.87 -5.74,10.3 -7.42,19.27l-2.28 13.23c-0.32,2.29 -0.59,4.36 -0.82,6.18 -0.22,1.81 -0.33,3.56 -0.33,5.23 0,5.33 1.14,8.99 3.42,10.97 2.28,1.97 5.55,2.95 9.81,2.95 5.78,0 10.22,-1.78 13.34,-5.35 3.13,-3.58 5.53,-10.24 7.2,-19.99l2.28 -13.23c0.3,-2.28 0.57,-4.41 0.79,-6.4 0.23,-1.98 0.35,-3.73 0.35,-5.25zm-94.48 -14.16c-4.87,0 -9.63,0.39 -14.27,1.16 -4.64,0.76 -8.93,2.13 -12.9,4.09l-15.5 88.56c-0.16,1.23 -0.58,2.37 -1.28,3.44 -0.69,1.06 -2.09,1.58 -4.2,1.58l-34.24 0c-1.21,0 -2.27,-0.42 -3.18,-1.26 -0.92,-0.83 -1.23,-2.09 -0.93,-3.76l21.69 -123.24c0.3,-1.22 0.8,-2.29 1.48,-3.2 0.69,-0.91 2.01,-1.37 4,-1.37l31.94 0c1.21,0 2.21,0.31 2.97,0.93 0.76,0.6 0.99,1.83 0.7,3.65l-0.7 5.47c5.33,-5.32 10.81,-8.61 16.44,-9.9 5.62,-1.3 10.42,-1.95 14.39,-1.95l2.52 0c1.96,0 3.17,0.46 3.62,1.37 0.47,0.92 0.55,1.98 0.26,3.19l-4.81 26.7c-0.14,1.07 -0.53,2.11 -1.14,3.09 -0.6,0.98 -1.82,1.46 -3.65,1.46l-3.18 0zm-96.09 -81.24c3.04,0 6.19,0.23 9.46,0.7 3.27,0.45 6.35,0.97 9.25,1.58 1.98,0.32 3.19,0.81 3.65,1.49 0.47,0.69 0.54,1.64 0.23,2.86l-3.65 20.99c-0.16,1.37 -0.57,2.46 -1.25,3.3 -0.69,0.83 -2.1,1.25 -4.23,1.25l-9.14 0c-3.04,0 -5.25,0.54 -6.62,1.6 -1.37,1.07 -2.43,3.81 -3.19,8.23l-0.91 5.23 16.9 0c3.19,0 4.48,1.6 3.86,4.81l-4.09 22.8c-0.47,3.21 -2.29,4.81 -5.48,4.81l-16.9 0 -17.57 99.51c-2.13,12 -5.4,21.02 -9.81,27.03 -4.42,6.01 -9.94,10 -16.55,11.97 -6.62,1.98 -14.34,2.98 -23.15,2.98 -2.9,0 -6.02,-0.23 -9.37,-0.67 -3.34,-0.45 -6.46,-0.99 -9.34,-1.6 -1.07,-0.3 -2.02,-0.79 -2.86,-1.49 -0.83,-0.69 -1.17,-1.63 -1.03,-2.84l3.65 -21.01c0.3,-1.37 0.79,-2.46 1.46,-3.3 0.7,-0.83 1.96,-1.25 3.79,-1.25l7.74 0c3.97,0 6.67,-0.5 8.11,-1.49 1.45,-0.99 2.54,-3.76 3.3,-8.32l17.36 -99.51 -15.07 -2.3c-3.05,-0.29 -4.34,-2.12 -3.88,-5.46l3.41 -19.85c0.45,-3.21 2.35,-4.81 5.69,-4.81l15.53 0 0.91 -5.23c2.14,-12.02 5.4,-21 9.81,-26.94 4.42,-5.93 9.97,-9.92 16.66,-11.97 6.7,-2.06 14.46,-3.09 23.29,-3.09zm-148.8 107.5l-0.93 -57.97c0,-1.07 -0.08,-1.87 -0.24,-2.39 -0.13,-0.54 -0.74,-0.82 -1.81,-0.82 -1.06,0 -1.76,0.27 -2.07,0.82 -0.29,0.53 -0.59,1.32 -0.9,2.39l-21.45 57.97 27.41 0z"/>
  </g>
 </g>
</svg>
